HIERARCHY
ROOT Hips
{
	OFFSET 0.00 0.00 0.00
	CHANNELS 6 Xposition Yposition Zposition Xrotation Yrotation Zrotation
	JOINT Spine
	{
		OFFSET 0.00000 1.70439 2.55658
		CHANNELS 3 Xrotation Yrotation Zrotation
		JOINT Spine1
		{
			OFFSET 0.00000 0.59193 3.35699
			CHANNELS 3 Xrotation Yrotation Zrotation
			JOINT Spine2
			{
				OFFSET 0.00000 0.29710 3.39581
				CHANNELS 3 Xrotation Yrotation Zrotation
				JOINT Spine3
				{
					OFFSET 0.00000 0.00000 3.40878
					CHANNELS 3 Xrotation Yrotation Zrotation
					JOINT Neck
					{
						OFFSET 0.00000 -1.27828 8.94804
						CHANNELS 3 Xrotation Yrotation Zrotation
						JOINT Head
						{
							OFFSET 0.00000 -0.81390 4.61586
							CHANNELS 3 Xrotation Yrotation Zrotation
							End Site
							{
								OFFSET 0.00000 0.00001 5.51796
							}
						}
					}
					JOINT RightShoulder
					{
						OFFSET -1.18875 -1.98124 6.41925
						CHANNELS 3 Xrotation Yrotation Zrotation
						JOINT RightArm
						{
							OFFSET -5.90412 0.00000 0.00000
							CHANNELS 3 Xrotation Yrotation Zrotation
							JOINT RightForeArm
							{
								OFFSET -11.94674 0.00000 0.00000
								CHANNELS 3 Xrotation Yrotation Zrotation
								JOINT RightHand
								{
									OFFSET -10.17720 0.00000 0.00000
									CHANNELS 3 Xrotation Yrotation Zrotation
									JOINT RightHandEnd
									{
										OFFSET -2.84518 0.00000 0.00000
										CHANNELS 3 Xrotation Yrotation Zrotation
										End Site
										{
											OFFSET -2.84518 0.00000 0.00000
										}
									}
									JOINT RightHandThumb1
									{
										OFFSET -1.13807 -1.89679 -0.75871
										CHANNELS 3 Yrotation Xrotation Zrotation
										End Site
										{
											OFFSET -2.74823 -0.73639 0.00000
										}
									}
								}
							}
						}
					}
					JOINT LeftShoulder
					{
						OFFSET 1.18875 -1.98124 6.41925
						CHANNELS 3 Xrotation Yrotation Zrotation
						JOINT LeftArm
						{
							OFFSET 5.90412 0.00000 0.00000
							CHANNELS 3 Xrotation Yrotation Zrotation
							JOINT LeftForeArm
							{
								OFFSET 11.94674 0.00000 0.00000
								CHANNELS 3 Xrotation Yrotation Zrotation
								JOINT LeftHand
								{
									OFFSET 10.17720 0.00000 0.00000
									CHANNELS 3 Xrotation Yrotation Zrotation
									JOINT LeftHandEnd
									{
										OFFSET 2.84518 0.00000 0.00000
										CHANNELS 3 Xrotation Yrotation Zrotation
										End Site
										{
											OFFSET 2.84518 0.00000 0.00000
										}
									}
									JOINT LeftHandThumb1
									{
										OFFSET 1.13807 -1.89679 -0.75871
										CHANNELS 3 Yrotation Xrotation Zrotation
										End Site
										{
											OFFSET 2.74823 -0.73639 0.00000
										}
									}
								}
							}
						}
					}
				}
			}
		}
	}
	JOINT RightUpLeg
	{
		OFFSET -3.52662 0.00000 -1.03025
		CHANNELS 3 Xrotation Yrotation Zrotation
		JOINT RightLeg
		{
			OFFSET 0.00001 0.00000 -17.80159
			CHANNELS 3 Xrotation Yrotation Zrotation
			JOINT RightFoot
			{
				OFFSET 0.00001 0.00000 -16.85992
				CHANNELS 3 Xrotation Yrotation Zrotation
				JOINT RightToeBase
				{
					OFFSET 0.00000 -5.42953 -1.97619
					CHANNELS 3 Xrotation Yrotation Zrotation
					End Site
					{
						OFFSET 0.00000 -2.85300 -0.00000
					}
				}
			}
		}
	}
	JOINT LeftUpLeg
	{
		OFFSET 3.52662 0.00000 -1.03025
		CHANNELS 3 Xrotation Yrotation Zrotation
		JOINT LeftLeg
		{
			OFFSET 0.00001 0.00000 -17.80159
			CHANNELS 3 Xrotation Yrotation Zrotation
			JOINT LeftFoot
			{
				OFFSET 0.00001 0.00000 -16.85992
				CHANNELS 3 Xrotation Yrotation Zrotation
				JOINT LeftToeBase
				{
					OFFSET 0.00000 -5.42953 -1.97619
					CHANNELS 3 Xrotation Yrotation Zrotation
					End Site
					{
						OFFSET 0.00000 -2.85300 -0.00000
					}
				}
			}
		}
	}
}
MOTION
Frames: 12
Frame Time: 0.008342
 -31.8567 76.4275 34.3537 5.9324 -5.2878 -117.9538 8.6059 -0.2041 0.8897 2.8385 0.7580 -0.0487 5.7241 -1.0222 -2.6198 3.8465 -0.2653 0.6849 28.1977 -2.6092 -1.2717 15.2934 -4.0513 2.5574 20.7185 -19.7747 -14.1675 20.5622 -43.2169 31.7824 -0.0000 0.0001 97.0663 -2.5823 22.7441 9.5249 -0.0000 -0.0000 -0.0000 0.0000 -0.0000 -0.0000 21.5244 5.4658 -2.3588 19.5927 53.4906 -27.4629 -0.0000 -0.0001 -81.3225 -11.7567 -25.3701 -19.2726 -0.0000 0.0000 0.0000 0.0000 -0.0000 0.0000 -20.4063 15.7602 -1.0343 26.1795 0.0000 0.0000 -1.8763 -24.1592 -8.4075 -3.4551 0.0000 -0.0000 -36.9939 1.9691 -14.8135 57.7384 0.0000 0.0000 -17.9854 1.2481 0.5970 -0.3084 0.0000 -0.0000
 -31.7304 76.8070 34.3570 6.3207 -5.5241 -116.1091 8.7642 -0.6402 0.9291 2.8777 0.6501 -0.0852 5.7164 -1.1374 -2.6397 3.7717 -0.2243 0.6470 27.8859 -2.6457 -1.1999 15.1706 -3.8314 2.6046 20.7818 -19.9431 -13.8524 20.5443 -43.0109 31.5791 -0.0000 0.0001 96.7003 -3.0940 22.8146 9.5930 0.0000 0.0000 0.0000 0.0000 -0.0000 -0.0000 21.5871 5.6525 -2.5404 19.4722 53.3338 -27.3965 -0.0000 -0.0001 -81.5518 -12.0857 -25.3953 -19.2687 -0.0000 0.0000 -0.0000 0.0000 -0.0000 -0.0000 -19.8721 15.3518 -3.1855 27.0124 0.0000 0.0000 -4.0266 -23.7745 -9.2560 -3.0338 0.0000 -0.0000 -37.4842 1.6057 -15.0799 58.3300 0.0000 0.0000 -17.9056 0.8463 0.5639 -1.8233 0.0000 -0.0000
 -31.6055 77.1679 34.3574 6.6290 -5.7373 -114.3914 8.9082 -1.0102 0.9597 2.9107 0.5381 -0.1164 5.6920 -1.2171 -2.5940 3.7043 -0.1860 0.6209 27.5190 -2.6263 -1.0878 15.0591 -3.5921 2.6741 20.8506 -20.0710 -13.4282 20.4234 -42.7217 31.2987 -0.0000 0.0001 96.2134 -3.5553 22.9191 9.7273 0.0000 0.0000 0.0000 -0.0000 -0.0000 0.0000 21.6528 5.8428 -2.6976 19.3329 53.2432 -27.3335 -0.0000 -0.0001 -81.6996 -12.3581 -25.4270 -19.2685 0.0000 -0.0000 -0.0000 -0.0000 0.0000 0.0000 -19.5281 15.0168 -5.4142 27.9037 0.0000 0.0000 -6.0144 -23.1589 -10.0143 -2.6436 0.0000 -0.0000 -38.0372 1.2902 -15.0570 58.9230 0.0000 0.0000 -17.7672 0.4285 0.8539 -3.6157 0.0000 -0.0000
 -31.4830 77.5087 34.3575 6.8548 -5.9381 -112.8212 9.0257 -1.3205 0.9850 2.9379 0.4418 -0.1385 5.6619 -1.2769 -2.4788 3.6473 -0.1497 0.6071 27.1049 -2.5423 -0.9418 14.9598 -3.3340 2.7739 20.9309 -20.1476 -12.8989 20.2034 -42.3444 30.9529 -0.0000 0.0001 95.6026 -3.9493 23.0543 9.9245 0.0000 0.0000 -0.0000 0.0000 0.0000 0.0000 21.7114 6.0357 -2.8258 19.1950 53.2297 -27.2920 -0.0000 -0.0001 -81.7539 -12.5815 -25.4636 -19.2764 0.0000 0.0000 0.0000 0.0000 0.0000 0.0000 -19.3647 14.7610 -7.5973 28.8224 0.0000 0.0000 -7.7521 -22.3902 -10.6285 -2.2890 0.0000 -0.0000 -38.6300 1.0109 -14.7298 59.4930 0.0000 0.0000 -17.5908 0.0253 1.4719 -5.5935 0.0000 -0.0000
 -31.3651 77.8290 34.3602 7.0033 -6.1202 -111.4063 9.1203 -1.5636 1.0077 2.9593 0.3468 -0.1545 5.6377 -1.3092 -2.2946 3.6027 -0.1193 0.6106 26.6560 -2.3857 -0.7662 14.8706 -3.0652 2.9067 21.0235 -20.1667 -12.2761 19.8960 -41.8766 30.5542 -0.0000 0.0001 94.8695 -4.2688 23.2228 10.1795 0.0000 -0.0000 -0.0000 0.0000 0.0000 0.0000 21.7536 6.2301 -2.9220 19.0843 53.2955 -27.2918 -0.0000 -0.0001 -81.7071 -12.7836 -25.5013 -19.2997 0.0000 0.0000 0.0000 -0.0000 0.0000 0.0000 -19.3442 14.5870 -9.6394 29.7426 0.0000 0.0000 -9.1859 -21.5504 -11.0629 -1.9772 0.0000 -0.0000 -39.2184 0.7596 -14.0979 60.0122 0.0000 0.0000 -17.4040 -0.3385 2.4003 -7.6438 0.0000 -0.0000
 -31.2535 78.1294 34.3679 7.0917 -6.2872 -110.1407 9.1890 -1.7577 1.0309 2.9745 0.2727 -0.1598 5.6293 -1.3343 -2.0510 3.5714 -0.1006 0.6326 26.1878 -2.1495 -0.5686 14.7883 -2.7875 3.0733 21.1210 -20.1158 -11.5803 19.5268 -41.3256 30.1166 -0.0000 0.0001 94.0222 -4.5260 23.4229 10.4852 -0.0000 0.0000 -0.0000 -0.0000 -0.0000 -0.0000 21.7738 6.4323 -2.9850 19.0236 53.4312 -27.3480 -0.0000 -0.0001 -81.5572 -13.0049 -25.5375 -19.3454 -0.0000 0.0000 0.0000 0.0000 -0.0000 0.0000 -19.4277 14.4783 -11.4798 30.6404 0.0000 0.0000 -10.2958 -20.7161 -11.3075 -1.7159 0.0000 -0.0000 -39.7706 0.5188 -13.1817 60.4614 0.0000 0.0000 -17.2398 -0.6451 3.5943 -9.6430 0.0000 -0.0000
 -31.1502 78.4112 34.3828 7.1362 -6.4349 -109.0079 9.2323 -1.9082 1.0561 2.9857 0.2109 -0.1570 5.6432 -1.3538 -1.7553 3.5530 -0.0943 0.6733 25.7179 -1.8382 -0.3546 14.7097 -2.5082 3.2764 21.2227 -19.9992 -10.8332 19.1145 -40.6950 29.6522 -0.0000 0.0001 93.0770 -4.7484 23.6528 10.8301 0.0000 -0.0000 0.0000 -0.0000 -0.0000 0.0000 21.7686 6.6408 -3.0122 19.0374 53.6227 -27.4765 -0.0000 -0.0001 -81.3069 -13.2866 -25.5718 -19.4181 -0.0000 0.0000 0.0000 0.0000 0.0000 0.0000 -19.5687 14.4203 -13.0913 31.4965 0.0000 0.0000 -11.0942 -19.9523 -11.3718 -1.5155 0.0000 -0.0000 -40.2529 0.2797 -12.0116 60.8244 0.0000 0.0000 -17.1285 -0.8878 4.9882 -11.4783 0.0000 -0.0000
 -31.0570 78.6761 34.4063 7.1485 -6.5603 -107.9827 9.2482 -2.0217 1.0840 2.9953 0.1637 -0.1473 5.6829 -1.3774 -1.4199 3.5456 -0.1014 0.7319 25.2634 -1.4609 -0.1296 14.6302 -2.2268 3.5125 21.3243 -19.8240 -10.0608 18.6809 -39.9943 29.1704 -0.0000 0.0001 92.0574 -4.9670 23.9092 11.2021 0.0000 0.0000 -0.0000 0.0000 0.0000 0.0000 21.7369 6.8551 -3.0031 19.1505 53.8477 -27.6894 -0.0000 -0.0001 -80.9656 -13.6754 -25.6023 -19.5231 -0.0000 0.0000 0.0000 0.0000 -0.0000 -0.0000 -19.7250 14.4021 -14.4747 32.2963 0.0000 0.0000 -11.6189 -19.3076 -11.2817 -1.3880 0.0000 -0.0000 -40.6412 0.0419 -10.6237 61.0921 0.0000 0.0000 -17.0913 -1.0702 6.5033 -13.0621 0.0000 -0.0000
 -30.9761 78.9264 34.4397 7.1530 -6.6429 -107.0285 9.2590 -2.1016 1.1116 3.0031 0.1052 -0.1368 5.7476 -1.3936 -1.0550 3.5470 -0.1243 0.8071 24.8400 -1.0308 0.1001 14.5453 -1.9456 3.7812 21.4241 -19.5998 -9.2902 18.2459 -39.2419 28.6800 -0.0000 0.0001 90.9938 -5.2197 24.1767 11.5891 0.0000 -0.0000 -0.0000 0.0000 -0.0000 -0.0000 21.6805 7.0743 -2.9592 19.3793 54.0767 -27.9903 -0.0000 -0.0001 -80.5484 -14.2022 -25.6326 -19.6590 -0.0000 0.0000 -0.0000 -0.0000 0.0000 -0.0000 -19.8284 14.4048 -15.6594 33.0185 0.0000 0.0000 -11.9228 -18.8099 -11.0803 -1.3432 0.0000 -0.0000 -40.8971 -0.1947 -9.0659 61.2636 0.0000 0.0000 -17.1391 -1.2028 8.0552 -14.3484 0.0000 -0.0000
 -30.9086 79.1647 34.4835 7.1694 -6.6792 -106.1057 9.2702 -2.1714 1.1384 3.0108 0.0530 -0.1235 5.8328 -1.4232 -0.6774 3.5536 -0.1590 0.8931 24.4592 -0.5640 0.3325 14.4528 -1.6678 4.0775 21.5161 -19.3455 -8.5481 17.8246 -38.4525 28.1805 -0.0000 0.0001 89.9242 -5.5282 24.4406 11.9716 0.0000 -0.0000 -0.0000 0.0000 0.0000 0.0000 21.6051 7.2913 -2.8829 19.7378 54.2839 -28.3824 -0.0000 -0.0001 -80.0729 -14.8924 -25.6644 -19.8269 0.0000 -0.0000 -0.0000 0.0000 -0.0000 -0.0000 -19.8366 14.4077 -16.6894 33.6467 0.0000 0.0000 -12.0660 -18.4672 -10.8199 -1.3911 0.0000 -0.0000 -41.0120 -0.4302 -7.3875 61.3501 0.0000 0.0000 -17.2674 -1.2992 9.5644 -15.3338 0.0000 -0.0000
 -30.8538 79.3932 34.5368 7.2131 -6.6889 -105.1767 9.2675 -2.2536 1.1628 3.0192 0.0114 -0.1016 5.9302 -1.4727 -0.3135 3.5625 -0.2046 0.9927 24.1294 -0.0776 0.5626 14.3490 -1.3935 4.3988 21.6005 -19.0753 -7.8600 17.4267 -37.6530 27.6758 -0.0000 0.0001 88.8857 -5.9149 24.6781 12.3379 0.0000 0.0000 0.0000 -0.0000 -0.0000 -0.0000 21.5161 7.5042 -2.7818 20.2245 54.4382 -28.8506 -0.0000 -0.0001 -79.5622 -15.7448 -25.7026 -20.0202 -0.0000 0.0000 0.0000 0.0000 -0.0000 0.0000 -19.7422 14.3863 -17.6098 34.1706 0.0000 0.0000 -12.1088 -18.2688 -10.5626 -1.5360 0.0000 -0.0000 -41.0123 -0.6676 -5.6368 61.3732 0.0000 0.0000 -17.4578 -1.3730 10.9667 -16.0522 0.0000 -0.0000
 -30.8117 79.6101 34.5982 7.2188 -6.6762 -104.2273 9.2322 -2.2830 1.1828 3.0301 -0.0352 -0.0819 6.0315 -1.5359 0.0326 3.5698 -0.2528 1.0962 23.8539 0.4072 0.7918 14.2337 -1.1211 4.7437 21.6795 -18.8134 -7.2360 17.0458 -36.8608 27.1531 -0.0000 0.0001 87.9191 -6.3792 24.8659 12.6718 0.0000 0.0000 -0.0000 -0.0000 0.0000 0.0000 21.4196 7.7064 -2.6573 20.8339 54.5164 -29.3806 -0.0000 -0.0001 -79.0374 -16.7384 -25.7513 -20.2323 0.0000 -0.0000 -0.0000 0.0000 -0.0000 -0.0000 -19.5781 14.4118 -18.4429 34.6186 0.0000 0.0000 -12.1138 -18.1959 -10.3422 -1.7756 0.0000 -0.0000 -40.9161 -0.8396 -3.8061 61.3298 0.0000 0.0000 -17.6680 -1.4440 12.2395 -16.5604 0.0000 -0.0000
